<svg width="32" height="32" version="1.1" xmlns="http://www.w3.org/2000/svg" desc="Created with imagetracer.js version 1.2.6" ><path fill="rgb(255,255,255)" stroke="rgb(255,255,255)" stroke-width="1" opacity="1" d="M 0.5 0 L 32 0 L 32 15 L 16.5 15 L 16 18 L 23 18 L 23 28.5 L 26 29 L 26 18 L 32 18 L 32 32 L 0 32 L 0 4.5 L 0.5 4 L 7 4 L 7 14.5 L 10 15 L 10 4 L 16 4 L 16 1 L 0.5 1 L 0.5 0 Z " /><path fill="rgb(78,176,82)" stroke="rgb(78,176,82)" stroke-width="1" opacity="1" d="M 1.5 1 L 14.5 1 L 16 2.5 Q 14.6 5.3 10 4 L 10 13.5 L 8.5 15 L 7 13.5 L 7 4 Q 1.6 5.5 0 2.5 L 1.5 1 Z " /><path fill="rgb(255,89,37)" stroke="rgb(255,89,37)" stroke-width="1" opacity="1" d="M 17.5 15 L 30.5 15 L 32 16.5 Q 30.6 19.3 26 18 L 26 27.5 L 24.5 29 L 23 27.5 L 23 18 Q 17.6 19.5 16 16.5 L 17.5 15 Z " /></svg>